<?xml version="1.0" standalone="no"?>
<!DOCTYPE svg PUBLIC "-//W3C//DTD SVG 20010904//EN"
 "http://www.w3.org/TR/2001/REC-SVG-20010904/DTD/svg10.dtd">
<svg version="1.0" xmlns="http://www.w3.org/2000/svg"
 width="1251.000000pt" height="1251.000000pt" viewBox="0 0 1251.000000 1251.000000"
 preserveAspectRatio="xMidYMid meet">
<metadata>
Created by potrace 1.14, written by Peter Selinger 2001-2017
</metadata>
<g transform="translate(0.000000,1251.000000) scale(0.100000,-0.100000)"
fill="#000000" stroke="none">
<path d="M2560 8095 c0 -10 11 -15 35 -15 l35 0 0 -440 0 -440 -35 0 c-24 0
-35 -5 -35 -15 0 -13 27 -15 180 -15 153 0 180 2 180 15 0 9 -9 15 -25 15
l-25 0 0 195 c0 208 6 244 52 292 26 27 63 30 74 6 4 -10 10 -125 12 -255 l4
-238 -31 0 c-21 0 -31 -5 -31 -15 0 -13 27 -15 185 -15 158 0 185 2 185 15 0
10 -11 15 -35 15 l-35 0 0 195 c0 208 -9 279 -42 321 -31 39 -93 64 -161 64
-72 0 -116 -18 -150 -61 l-27 -34 0 213 0 212 -155 0 c-131 0 -155 -2 -155
-15z"/>
<path d="M1755 8038 c-2 -7 -5 -79 -8 -160 -4 -137 -3 -148 14 -148 12 0 22
15 34 53 26 79 84 184 112 202 13 9 40 19 59 22 l34 6 0 -407 0 -406 -50 0
c-38 0 -50 -4 -50 -15 0 -13 32 -15 230 -15 198 0 230 2 230 15 0 12 -13 15
-55 15 l-55 0 0 405 0 405 29 0 c66 0 126 -74 172 -208 19 -58 40 -84 56 -69
3 3 2 76 -2 161 l-7 156 -370 0 c-286 0 -370 -3 -373 -12z"/>
<path d="M3545 7767 c-66 -22 -99 -43 -142 -90 -54 -58 -68 -103 -68 -212 1
-72 5 -100 23 -140 45 -99 115 -148 232 -165 87 -12 174 0 233 32 43 24 110
118 105 147 -6 30 -24 19 -46 -29 -39 -85 -137 -129 -216 -96 -50 21 -75 79
-83 191 l-6 85 177 0 176 0 0 49 c0 97 -44 172 -125 213 -51 26 -200 35 -260
15z m122 -25 c22 -14 33 -63 33 -143 l0 -79 -60 0 -60 0 0 53 c1 126 39 200
87 169z"/>
<path d="M4579 7630 c-103 -18 -209 -102 -262 -206 -52 -104 -69 -180 -75
-336 l-4 -148 -69 0 -69 0 0 -30 0 -30 70 0 70 0 0 -515 0 -515 -65 0 c-63 0
-65 -1 -65 -25 l0 -25 415 0 415 0 0 25 0 25 -125 0 -125 0 0 515 0 515 205 0
204 0 3 -437 3 -438 30 -60 c60 -121 152 -160 370 -160 126 0 145 3 192 24 29
13 69 41 89 63 47 52 93 151 101 217 6 52 4 55 -34 50 -5 -1 -14 -25 -20 -55
-17 -73 -45 -125 -87 -162 -67 -58 -144 -51 -178 18 -16 32 -18 77 -18 488 l0
452 150 0 150 0 0 30 0 30 -150 0 -150 0 0 205 c0 113 -2 205 -5 205 -5 0
-326 -80 -407 -101 l-38 -10 0 -149 0 -150 -210 0 -211 0 -103 210 c-116 234
-131 284 -99 347 24 49 61 74 117 80 81 10 129 -44 107 -119 -10 -34 -15 -37
-56 -43 -38 -6 -44 -11 -47 -34 -17 -145 94 -242 242 -210 84 18 131 70 145
161 24 159 -100 291 -285 302 -41 3 -96 1 -121 -4z"/>
<path d="M754 7476 c-93 -18 -135 -32 -214 -71 -173 -87 -297 -227 -363 -410
-52 -147 -72 -386 -46 -572 13 -100 60 -241 104 -312 104 -172 269 -277 497
-317 143 -25 364 -14 531 25 71 17 137 31 147 31 10 0 27 -12 38 -27 13 -17
25 -24 36 -20 13 5 16 21 16 84 0 43 3 162 7 266 l6 187 -25 0 c-22 0 -31 -12
-71 -95 -90 -186 -200 -326 -295 -374 -86 -44 -183 -45 -270 -4 -118 56 -203
236 -231 487 -14 122 -14 458 -1 584 37 342 157 503 368 490 156 -9 275 -123
409 -392 41 -82 51 -96 72 -96 l24 0 -6 188 c-4 103 -7 220 -7 260 0 63 -2 72
-18 72 -11 0 -27 -9 -37 -20 -24 -26 -42 -25 -187 11 -149 37 -364 48 -484 25z"/>
<path d="M2473 6945 c-95 -29 -172 -95 -208 -177 -14 -32 -14 -29 -15 70 l0
102 -285 0 -285 0 0 -30 0 -30 65 0 65 0 0 -515 0 -515 -65 0 c-63 0 -65 -1
-65 -25 l0 -25 370 0 370 0 0 25 c0 25 -1 25 -86 25 l-86 0 4 368 c4 342 6
371 26 432 40 121 103 195 176 207 46 7 76 -11 76 -47 0 -51 -9 -60 -55 -60
-49 0 -52 -5 -61 -83 -10 -94 53 -176 146 -192 149 -25 248 55 258 209 6 97
-10 151 -62 202 -66 67 -182 91 -283 59z"/>
<path d="M3250 6953 c-238 -31 -353 -125 -353 -289 0 -137 63 -199 203 -199
64 0 82 4 122 27 63 38 91 85 90 154 -1 91 -9 112 -45 116 -26 2 -32 9 -40 37
-11 44 6 86 41 99 56 21 64 21 96 8 59 -25 69 -68 74 -317 l4 -216 -124 -7
c-367 -20 -484 -95 -482 -306 0 -124 46 -198 154 -249 50 -24 66 -26 185 -26
120 0 133 2 175 25 26 15 58 45 76 72 l32 47 26 -39 c52 -80 159 -115 322
-108 76 3 109 9 141 26 83 43 126 128 140 276 6 62 5 66 -15 66 -17 0 -22 -8
-27 -37 -12 -84 -37 -169 -54 -187 -24 -23 -65 -15 -83 17 -10 16 -14 117 -19
382 -5 346 -6 362 -28 419 -60 151 -168 204 -436 211 -77 2 -156 1 -175 -2z
m188 -800 c-3 -147 -6 -173 -24 -208 -11 -22 -33 -47 -47 -55 -25 -14 -28 -13
-49 8 -22 21 -23 30 -23 165 0 127 2 146 22 183 22 40 69 73 106 74 17 0 18
-11 15 -167z"/>
<path d="M6248 6942 c-85 -23 -166 -79 -212 -145 -55 -80 -68 -128 -69 -242
-1 -84 3 -108 22 -152 42 -95 156 -174 321 -223 237 -70 275 -84 310 -116 30
-28 35 -39 35 -77 0 -55 -26 -94 -81 -122 -59 -30 -237 -28 -316 3 -106 43
-185 138 -243 295 -12 33 -23 47 -36 47 -18 0 -19 -12 -19 -215 0 -244 2 -249
70 -175 20 22 46 40 57 40 11 0 46 -11 78 -25 181 -81 412 -73 549 18 62 41
95 81 128 153 20 43 23 65 23 174 0 110 -3 131 -24 177 -50 112 -171 186 -402
249 -74 20 -155 47 -181 60 -101 51 -103 149 -4 206 35 20 54 23 136 23 83 -1
102 -4 152 -28 72 -36 147 -116 190 -207 22 -45 39 -69 51 -69 16 -1 17 14 17
184 0 170 -1 185 -17 185 -10 -1 -27 -15 -38 -33 -27 -44 -56 -45 -167 -6
-119 41 -231 48 -330 21z"/>
<path d="M7725 6947 c-27 -8 -65 -21 -83 -31 -44 -23 -106 -88 -123 -128 -14
-32 -14 -30 -19 57 l-5 90 -287 3 -288 2 0 -30 0 -30 65 0 65 0 0 -515 0 -515
-65 0 c-63 0 -65 -1 -65 -25 l0 -25 330 0 330 0 0 25 c0 23 -4 25 -41 25 l-40
0 3 393 c3 376 4 394 25 445 40 97 104 158 154 145 39 -11 43 -49 47 -525 l3
-458 -45 0 c-42 0 -46 -2 -46 -25 l0 -25 310 0 310 0 0 25 c0 23 -4 25 -40 25
l-41 0 3 398 c3 390 3 398 26 455 37 90 97 141 154 129 38 -8 42 -50 46 -524
l3 -458 -40 0 c-37 0 -41 -2 -41 -25 l0 -25 330 0 330 0 0 25 c0 24 -2 25 -65
25 l-65 0 0 373 c0 385 -7 480 -39 553 -28 62 -93 128 -154 155 -69 30 -225
33 -304 6 -66 -23 -136 -85 -176 -155 l-31 -55 -14 41 c-20 60 -91 135 -154
162 -64 28 -190 36 -263 17z"/>
<path d="M9508 6950 c-246 -45 -408 -188 -464 -410 -25 -98 -15 -310 18 -406
58 -165 163 -268 328 -322 111 -37 322 -43 439 -13 103 26 155 55 215 122 45
50 97 145 111 202 7 25 5 27 -24 27 -18 0 -31 -5 -31 -12 0 -23 -56 -132 -85
-166 -100 -118 -310 -149 -411 -60 -70 62 -99 159 -110 371 l-7 127 336 0 337
0 0 63 c0 83 -24 189 -57 256 -48 99 -144 173 -268 208 -61 17 -263 25 -327
13z m171 -69 c31 -31 41 -85 48 -253 l6 -158 -121 0 -122 0 0 38 c1 103 20
282 33 314 8 20 25 46 36 57 28 28 93 29 120 2z"/>
<path d="M11053 6950 c-83 -17 -162 -76 -212 -160 l-21 -35 0 93 0 92 -290 0
-290 0 0 -30 0 -30 65 0 65 0 0 -515 0 -515 -65 0 c-63 0 -65 -1 -65 -25 l0
-25 340 0 340 0 0 25 c0 23 -3 25 -51 25 l-50 0 3 388 c3 374 4 389 26 443 43
108 119 169 184 147 50 -17 52 -37 56 -525 l3 -453 -50 0 c-48 0 -51 -2 -51
-25 l0 -25 340 0 340 0 0 25 c0 24 -2 25 -64 25 l-64 0 -4 413 c-5 455 -7 468
-71 563 -71 107 -241 158 -414 124z"/>
<path d="M9128 5600 c-81 -15 -164 -58 -218 -116 -90 -95 -128 -220 -117 -383
13 -196 89 -311 244 -372 76 -30 245 -32 342 -5 82 22 117 23 139 3 39 -36 42
-25 42 163 l0 180 25 0 c16 0 25 6 25 15 0 13 -27 15 -185 15 -158 0 -185 -2
-185 -15 0 -11 11 -15 40 -15 l40 0 0 -137 c0 -176 -5 -187 -82 -191 -51 -3
-60 0 -92 28 -21 19 -43 53 -56 86 -58 157 -48 525 19 639 39 67 120 92 195
61 40 -17 105 -90 155 -176 57 -100 66 -90 62 70 -1 74 -5 137 -7 139 -2 2
-15 -2 -28 -9 -21 -11 -36 -10 -92 4 -81 20 -203 28 -266 16z"/>
<path d="M10068 5320 c-37 -11 -68 -34 -89 -67 l-19 -28 0 48 0 47 -155 0
c-148 0 -155 -1 -155 -20 0 -16 7 -20 35 -20 l35 0 0 -265 0 -265 -35 0 c-28
0 -35 -4 -35 -20 0 -19 7 -20 200 -20 193 0 200 1 200 20 0 17 -7 20 -46 20
l-45 0 3 203 c3 187 5 205 26 244 37 70 103 97 110 46 3 -17 -3 -22 -25 -25
-26 -3 -28 -7 -31 -50 -3 -40 1 -52 22 -73 21 -21 35 -25 79 -25 45 0 59 4 80
26 43 43 48 129 11 183 -30 43 -102 61 -166 41z"/>
<path d="M10495 5317 c-98 -26 -162 -76 -199 -157 -17 -37 -21 -64 -20 -150 1
-118 12 -156 69 -219 58 -63 121 -85 245 -85 127 0 189 22 248 90 46 52 61 95
69 197 11 151 -41 261 -147 306 -64 28 -194 36 -265 18z m147 -60 c18 -30 24
-407 8 -466 -20 -75 -88 -79 -115 -6 -14 36 -16 76 -13 246 3 215 9 242 51
258 26 10 52 -2 69 -32z"/>
<path d="M12093 5319 c-18 -5 -49 -25 -68 -45 l-35 -35 0 41 0 40 -150 0
c-143 0 -150 -1 -150 -20 0 -16 7 -20 35 -20 l35 0 0 -415 0 -415 -35 0 c-24
0 -35 -5 -35 -15 0 -13 33 -15 235 -15 202 0 235 2 235 15 0 12 -16 15 -80 15
l-80 0 0 144 0 144 37 -19 c78 -40 213 -16 275 48 51 52 70 103 76 204 9 167
-34 286 -119 329 -48 25 -130 34 -176 19z m29 -81 c9 -17 13 -78 13 -223 0
-230 -7 -258 -62 -263 -28 -3 -36 2 -53 30 -18 30 -20 50 -20 206 0 178 7 217
44 255 25 24 63 22 78 -5z"/>
<path d="M10930 5300 c0 -16 7 -20 35 -20 l35 0 0 -219 c0 -131 4 -231 11
-248 15 -42 68 -92 109 -103 85 -24 174 -6 218 44 l30 34 6 -39 6 -39 145 0
c138 0 145 1 145 20 0 16 -7 20 -35 20 l-35 0 0 285 0 285 -145 0 c-138 0
-145 -1 -145 -20 0 -15 7 -20 25 -20 l25 0 0 -219 c0 -211 -1 -219 -23 -252
-13 -19 -33 -35 -47 -37 -47 -7 -50 11 -50 290 l0 258 -155 0 c-148 0 -155 -1
-155 -20z"/>
</g>
</svg>
